<svg xmlns="http://www.w3.org/2000/svg" version="1.1" xmlns:xlink="http://www.w3.org/1999/xlink" xmlns:svgjs="http://svgjs.com/svgjs" width="1440" height="560" preserveAspectRatio="none" viewBox="0 0 1440 560"><g mask="url(&quot;#SvgjsMask5466&quot;)" fill="none"><rect width="1440" height="560" x="0" y="0" fill="rgba(152, 45, 255, 1)"></rect><rect width="252" height="252" clip-path="url(&quot;#SvgjsClipPath5467&quot;)" x="421.17" y="413.48" fill="url(#SvgjsPattern5468)" transform="rotate(141.47, 547.17, 539.48)"></rect><path d="M1146.14 315.53L1158.56 318.66 1158.24 331.46 1170.65 334.59 1170.33 347.39 1182.75 350.52 1182.42 363.32" stroke="rgba(210, 126, 255, 1)" stroke-width="1"></path><path d="M877.04 317.34a5.6 5.6 0 1 0-10.26-4.5 5.6 5.6 0 1 0 10.26 4.5zM862.38 310.92a5.6 5.6 0 1 0-10.26-4.49 5.6 5.6 0 1 0 10.26 4.49zM847.72 304.5a5.6 5.6 0 1 0-10.26-4.49 5.6 5.6 0 1 0 10.26 4.49zM833.07 298.09a5.6 5.6 0 1 0-10.26-4.49 5.6 5.6 0 1 0 10.26 4.49zM912.77 315.51a5.6 5.6 0 1 0-10.26-4.49 5.6 5.6 0 1 0 10.26 4.49zM898.11 309.09a5.6 5.6 0 1 0-10.26-4.49 5.6 5.6 0 1 0 10.26 4.49zM883.45 302.68a5.6 5.6 0 1 0-10.26-4.49 5.6 5.6 0 1 0 10.26 4.49zM868.8 296.26a5.6 5.6 0 1 0-10.26-4.49 5.6 5.6 0 1 0 10.26 4.49zM948.5 313.68a5.6 5.6 0 1 0-10.26-4.49 5.6 5.6 0 1 0 10.26 4.49zM933.84 307.27a5.6 5.6 0 1 0-10.26-4.49 5.6 5.6 0 1 0 10.26 4.49zM919.18 300.85a5.6 5.6 0 1 0-10.26-4.49 5.6 5.6 0 1 0 10.26 4.49zM904.53 294.44a5.6 5.6 0 1 0-10.26-4.49 5.6 5.6 0 1 0 10.26 4.49z" fill="rgba(210, 126, 255, 1)"></path><circle r="53.52028075815955" cx="1326.89" cy="399.09" stroke="rgba(210, 126, 255, 1)" stroke-width="2.03" stroke-dasharray="3, 2"></circle><rect width="177.76" height="177.76" clip-path="url(&quot;#SvgjsClipPath5469&quot;)" x="1013.87" y="-65.74" fill="url(#SvgjsPattern5470)" transform="rotate(53.28, 1102.75, 23.14)"></rect><rect width="68.6" height="68.6" clip-path="url(&quot;#SvgjsClipPath5471&quot;)" x="232.49" y="478.07" fill="url(#SvgjsPattern5472)" transform="rotate(70.25, 266.79, 512.37)"></rect><path d="M633.06 490.2a5.6 5.6 0 1 0 1.64 11.08 5.6 5.6 0 1 0-1.64-11.08zM635.4 506.03a5.6 5.6 0 1 0 1.64 11.08 5.6 5.6 0 1 0-1.64-11.08zM637.75 521.86a5.6 5.6 0 1 0 1.64 11.08 5.6 5.6 0 1 0-1.64-11.08zM640.09 537.69a5.6 5.6 0 1 0 1.64 11.08 5.6 5.6 0 1 0-1.64-11.08z" stroke="rgba(210, 126, 255, 1)" stroke-width="2.86" stroke-dasharray="2, 2"></path><path d="M1093.33 511L1098.9 499.47 1111.37 502.37 1116.94 490.84 1129.41 493.74 1134.98 482.21 1147.45 485.11" stroke="rgba(210, 126, 255, 1)" stroke-width="2.18" stroke-dasharray="2, 2"></path><path d="M1201.95 327.84L1213.05 321.45 1221.72 330.87 1232.82 324.48 1241.49 333.9 1252.59 327.51 1261.26 336.93M1200.74 335.74L1211.84 329.35 1220.51 338.78 1231.61 332.39 1240.28 341.81 1251.37 335.42 1260.05 344.84M1199.53 343.65L1210.62 337.26 1219.3 346.68 1230.39 340.29 1239.06 349.72 1250.16 343.32 1258.83 352.75" stroke="rgba(210, 126, 255, 1)" stroke-width="2.34" stroke-dasharray="3, 2"></path><rect width="60" height="60" clip-path="url(&quot;#SvgjsClipPath5473&quot;)" x="36.38" y="76.6" fill="url(#SvgjsPattern5474)" transform="rotate(196.89, 66.38, 106.6)"></rect><rect width="60" height="60" clip-path="url(&quot;#SvgjsClipPath5475&quot;)" x="85.09" y="358.03" fill="url(#SvgjsPattern5476)" transform="rotate(211.77, 115.09, 388.03)"></rect><rect width="347.6" height="347.6" clip-path="url(&quot;#SvgjsClipPath5477&quot;)" x="820.76" y="154.53" fill="url(#SvgjsPattern5478)" transform="rotate(207.5, 994.56, 328.33)"></rect></g><defs><mask id="SvgjsMask5466"><rect width="1440" height="560" fill="#ffffff"></rect></mask><pattern x="0" y="0" width="6" height="6" patternUnits="userSpaceOnUse" id="SvgjsPattern5468"><path d="M0 6L3 0L6 6" stroke="rgba(210, 126, 255, 1)" fill="none"></path></pattern><clipPath id="SvgjsClipPath5467"><circle r="63" cx="547.17" cy="539.48"></circle></clipPath><pattern x="0" y="0" width="177.76" height="8.08" patternUnits="userSpaceOnUse" id="SvgjsPattern5470"><rect width="177.76" height="4.04" x="0" y="0" fill="rgba(210, 126, 255, 1)"></rect><rect width="177.76" height="4.04" x="0" y="4.04" fill="rgba(0, 0, 0, 0)"></rect></pattern><clipPath id="SvgjsClipPath5469"><circle r="44.44" cx="1102.75" cy="23.14"></circle></clipPath><pattern x="0" y="0" width="6.86" height="6.86" patternUnits="userSpaceOnUse" id="SvgjsPattern5472"><path d="M3.43 1L3.43 5.86M1 3.43L5.86 3.43" stroke="rgba(210, 126, 255, 1)" fill="none" stroke-width="1"></path></pattern><clipPath id="SvgjsClipPath5471"><circle r="17.15" cx="266.79" cy="512.37"></circle></clipPath><pattern x="0" y="0" width="6" height="6" patternUnits="userSpaceOnUse" id="SvgjsPattern5474"><path d="M0 6L3 0L6 6" stroke="rgba(210, 126, 255, 1)" fill="none"></path></pattern><clipPath id="SvgjsClipPath5473"><circle r="15" cx="66.38" cy="106.6"></circle></clipPath><pattern x="0" y="0" width="6" height="6" patternUnits="userSpaceOnUse" id="SvgjsPattern5476"><path d="M3 1L3 5M1 3L5 3" stroke="rgba(210, 126, 255, 1)" fill="none" stroke-width="1"></path></pattern><clipPath id="SvgjsClipPath5475"><circle r="15" cx="115.09" cy="388.03"></circle></clipPath><pattern x="0" y="0" width="7.9" height="7.9" patternUnits="userSpaceOnUse" id="SvgjsPattern5478"><path d="M0 7.9L3.95 0L7.9 7.9" stroke="rgba(210, 126, 255, 1)" fill="none"></path></pattern><clipPath id="SvgjsClipPath5477"><circle r="86.9" cx="994.56" cy="328.33"></circle></clipPath></defs></svg>